<?xml version="1.0" encoding="UTF-8" standalone="no"?>
<svg
   xmlns:dc="http://purl.org/dc/elements/1.1/"
   xmlns:cc="http://creativecommons.org/ns#"
   xmlns:rdf="http://www.w3.org/1999/02/22-rdf-syntax-ns#"
   xmlns:svg="http://www.w3.org/2000/svg"
   xmlns="http://www.w3.org/2000/svg"
   xmlns:sodipodi="http://sodipodi.sourceforge.net/DTD/sodipodi-0.dtd"
   xmlns:inkscape="http://www.inkscape.org/namespaces/inkscape"
   version="1.1"
   id="svg31"
   width="711.54022"
   height="627.51001"
   viewBox="0 0 711.54025 627.51002"
   sodipodi:docname="logoWithoutBg.svg"
   inkscape:version="1.0 (4035a4fb49, 2020-05-01)">
  <metadata
     id="metadata37">
    <rdf:RDF>
      <cc:Work
         rdf:about="">
        <dc:format>image/svg+xml</dc:format>
        <dc:type
           rdf:resource="http://purl.org/dc/dcmitype/StillImage" />
        <dc:title></dc:title>
      </cc:Work>
    </rdf:RDF>
  </metadata>
  <defs
     id="defs35">
    <filter
       height="1.0004885"
       y="-0.00024426635"
       width="1.0004308"
       x="-0.000215407"
       id="filter1182"
       style="color-interpolation-filters:sRGB"
       inkscape:collect="always">
      <feGaussianBlur
         id="feGaussianBlur1184"
         stdDeviation="0.063835305"
         inkscape:collect="always" />
    </filter>
  </defs>
  <sodipodi:namedview
     inkscape:document-rotation="0"
     pagecolor="#ffffff"
     bordercolor="#666666"
     borderopacity="1"
     objecttolerance="10"
     gridtolerance="10"
     guidetolerance="10"
     inkscape:pageopacity="0"
     inkscape:pageshadow="2"
     inkscape:window-width="1366"
     inkscape:window-height="705"
     id="namedview33"
     showgrid="false"
     inkscape:zoom="0.43229938"
     inkscape:cx="334.28609"
     inkscape:cy="335.80335"
     inkscape:window-x="-8"
     inkscape:window-y="-8"
     inkscape:window-maximized="1"
     inkscape:current-layer="g39" />
  <g
     transform="translate(-1308.3598,2183.7084)"
     inkscape:groupmode="layer"
     inkscape:label="Image"
     id="g39">
    <path
       d=""
       id="path854"
       style="fill:#000000" />
    <path
       id="path872"
       d="m 1646.012,-1561.4529 -14,-5.1011 -4,-1.2094 -4,-1.2094 -2,-0.819 -2,-0.819 -8.5,-3.1713 -8.5,-3.1713 -3.5,-1.2602 -3.5,-1.2602 -9,-3.0267 -9,-3.0267 -2,-0.8983 -2,-0.8982 -13,-4.6199 -13,-4.6199 -11,-3.941 -11,-3.9411 -9.5,-3.3621 -9.5,-3.3621 -14.5,-5.1632 -14.5,-5.1633 -3,-1.0439 -3,-1.044 -0.95,-0.8635 -0.95,-0.8635 h -2.1333 -2.1334 l -0.6853,-0.6853 -0.6853,-0.6854 -3.7314,-1.3541 -3.7313,-1.354 -1.5,-0.433 -1.5,-0.433 -11.5,-4.0579 -11.5,-4.0579 -6,-2.0485 -6,-2.0485 -0.95,-0.9212 -0.95,-0.9212 h -1.8136 -1.8135 l -1.7365,-0.9506 -1.7364,-0.9505 -11,-3.675 -11,-3.6751 -4.6708,-2.9278 -4.6708,-2.9278 -1.0792,-3.0958 -1.0792,-3.0959 v -142.8706 -142.8706 l -2.7147,-4.2302 -2.7148,-4.2301 0.1751,-0.6309 0.175,-0.631 -1.9603,-1.774 -1.9603,-1.7741 v -0.8256 -0.8256 l -3.5324,-5.522 -3.5323,-5.5219 -0.6704,-1.7475 -0.6704,-1.7474 -2.7973,-4.145 -2.7972,-4.1451 v -0.6535 -0.6536 l -4,-6.0221 -4,-6.0221 v -0.3981 -0.3981 l -4.5,-6.9563 -4.5,-6.9563 v -0.605 -0.6049 l -5.5159,-9.22 -5.5159,-9.2199 -0.9435,-1.5 -0.9435,-1.5 -3.7906,-6.3994 -3.7906,-6.3994 -3.7125,-6.6006 -3.7125,-6.6006 -0.037,-3.1671 -0.037,-3.1671 1.9145,-4.4663 1.9145,-4.4663 2.3004,-1.6113 2.3005,-1.6113 6.5351,-2.4131 6.535,-2.4131 14.5,-5.1768 14.5,-5.1769 8.5,-3.0086 8.5,-3.0087 1,-0.253 1,-0.2531 3,-1.2256 3,-1.2256 5.5,-1.8905 5.5,-1.8904 10,-3.6024 10,-3.6024 9,-3.0402 9,-3.0401 1,-0.7399 1,-0.7399 5,-1.3093 5,-1.3093 1,-0.5806 1,-0.5805 0.5,-0.099 0.5,-0.099 3,-1.3616 3,-1.3616 1,-0.1512 1,-0.1513 1.5,-0.59 1.5,-0.5899 7.5,-2.6692 7.5,-2.6691 12.5,-4.4803 12.5,-4.4804 12,-4.2716 12,-4.2717 2,-0.7329 2,-0.733 2,-0.8177 2,-0.8177 4.5,-1.4622 4.5,-1.4621 13,-4.749 13,-4.749 10,-3.4476 10,-3.4477 1.5,-0.5964 1.5,-0.5965 0.5,-0.1017 0.5,-0.1016 1,-0.541 1,-0.541 3.2735,-0.2715 3.2735,-0.2716 4.2514,2.0581 4.2515,2.0581 4.2357,6.4426 4.2358,6.4427 3.3593,5.8271 3.3592,5.8271 8.4407,14.5 8.4407,14.5 2.1301,3.5 2.13,3.5 0.8093,1.0485 0.8093,1.0485 1.5,2.7117 1.5,2.7116 7.4517,12.4898 7.4518,12.4899 h 1.076 1.076 l 1.7746,-2.0726 1.7746,-2.0725 0.9601,-2.1775 0.9601,-2.1774 1.8459,-3 1.8458,-3 1.9917,-3.5 1.9916,-3.5 3.9274,-6.5 3.9273,-6.5 1.2013,-2.75 1.2012,-2.75 h 1.0805 1.0804 l -0.5652,-0.9146 -0.5653,-0.9146 0.787,-0.3354 0.7869,-0.3354 4.8871,-8.5 4.8871,-8.5 2.0822,-4 2.0822,-4 1.9138,-3 1.9138,-3 1.3523,-2.2394 1.3524,-2.2395 -0.1016,-0.6487 -0.1015,-0.6488 0.8607,-0.6118 0.8606,-0.6118 3.4748,-5.8205 3.4747,-5.8205 3.0462,-1.8851 3.0462,-1.8851 4.1682,-0.6665 4.1682,-0.6665 11.7856,4.217 11.7856,4.2171 4.5,1.8074 4.5,1.8074 8,2.7085 8,2.7085 3,1.313 3,1.3129 8,2.5844 8,2.5844 2,0.9109 2,0.9108 12,4.1393 12,4.1392 2,0.8968 2,0.8968 8,2.6238 8,2.6237 3,1.311 3,1.311 7,2.2114 7,2.2114 2,0.8712 2,0.8711 5.5,2.0552 5.5,2.0552 2,0.8554 2,0.8554 10,3.2493 10,3.2493 2.25,1.3907 2.25,1.3908 v -0.4979 -0.4979 l 8.25,3.0843 8.25,3.0843 3.5,0.9545 3.5,0.9545 3,1.3594 3,1.3593 4.5,1.6452 4.5,1.6451 3,0.806 3,0.806 16,6.0305 16,6.0305 2.5,0.6749 2.5,0.6749 7,2.5668 7,2.5668 3.1646,3.2454 3.1645,3.2455 0.7023,5.6212 0.7024,5.6212 -3.7555,7.2367 -3.7556,7.2367 -1.1941,1.5 -1.1941,1.5 -6.3457,11 -6.3458,11 -1.5715,1.3242 -1.5715,1.3241 1.5,-0.6483 1.5,-0.6483 -2,1.6172 -2,1.6172 0.5,0.3317 0.5,0.3317 -4.5,7.6999 -4.5,7.6999 -2.3568,4.1754 -2.3567,4.1753 -2.2862,3.5 -2.2862,3.5 -6.7454,11.5 -6.7454,11.5 -4.8387,7.747 -4.8387,7.747 -0.273,143.753 -0.2729,143.753 -2.1932,3.5 -2.1932,3.5 -2.3068,1.4636 -2.3068,1.4635 -5.5,2.2818 -5.5,2.2818 h -1.1144 l -1.1144,0.01 -10.8856,4.0306 -10.8856,4.0305 -2,0.8779 -2,0.8778 -4.5,1.503 -4.5,1.503 -15.5,5.4569 -15.5,5.4568 -1.5,0.5618 -1.5,0.5619 -14.5,5.2023 -14.5,5.2024 -6.75,2.3675 -6.75,2.3669 -6.75,2.4608 -6.75,2.4608 -3,1.1951 -3,1.1952 -1,0.1512 -1,0.1512 -1.5,0.5856 -1.5,0.5857 -12.7274,4.6705 -12.7273,4.6705 -2.7727,0.8618 -2.7726,0.8618 -5.5,2.1258 -5.5,2.1258 -7.7091,2.4797 -7.7092,2.4797 -4.2466,1.9013 -4.2466,1.9012 -0.838,-0.5179 -0.8381,-0.518 -1.2062,0.9958 -1.2062,0.9959 -11.5,4.1332 -11.5,4.1333 -15.5,5.6304 -15.5,5.6305 -5,0.3062 -5,0.3063 z m 2.5,-159.9093 v -123.8061 l -1.3981,-1.3982 -1.3982,-1.3982 -9.3518,-3.2783 -9.3519,-3.2783 -12.5,-4.4402 -12.5,-4.4402 -5.5,-2.0364 -5.5,-2.0364 -3.5,-1.3326 -3.5,-1.3325 -4.5,-1.4538 -4.5,-1.4538 -8,-2.8082 -8,-2.8082 -3.4253,-1.4539 -3.4254,-1.4539 -15.5746,-5.4909 -15.5747,-5.4909 -11,-3.9463 -11,-3.9462 -7,-2.4803 -7,-2.4804 -1.7538,-0.3957 -1.7537,-0.3957 -1.007,-0.6224 -1.007,-0.6223 -9.7392,-3.5071 -9.7393,-3.5071 -3,-0.9122 -3,-0.9122 -2,-0.9644 -2,-0.9643 -8.5,-2.9422 -8.5,-2.9423 -11.4181,-4.0914 -11.4181,-4.0914 -1.309,1.0864 -1.309,1.0863 -0.034,123.8139 -0.034,123.814 1.5827,1.5826 1.5827,1.5827 h 1.7619 1.7619 l 0.5875,0.5875 0.5875,0.5875 8.3292,2.9738 8.3291,2.9737 9.5,3.3659 9.5,3.3659 11.5,4.1562 11.5,4.1563 14,4.9964 14,4.9964 8.5,2.9152 8.5,2.9152 2,0.9261 2,0.9262 16,5.6466 16,5.6466 6,2.1661 6,2.1661 0.5,0.032 0.5,0.032 1.0822,0.69 1.0822,0.69 7.4178,2.4722 7.4178,2.4722 11.0636,3.8983 11.0636,3.8982 0.9364,0.5702 0.9364,0.5702 12,4.1902 12,4.1901 6.5,2.3054 6.5,2.3053 1.25,-1.0139 1.25,-1.0139 v -123.8062 z m 12.1282,-161.2355 2.6282,-4.2135 1.77,-3.5 1.77,-3.5 2.3518,-3.0944 2.3518,-3.0944 v -1.1556 -1.1556 h 1.059 1.059 l -0.5454,-0.8825 -0.5453,-0.8824 1.7516,-2.3676 1.7517,-2.3675 2.3833,-4.5 2.3832,-4.5 1.3917,-1.6232 1.3916,-1.6231 2.7098,-5.063 2.7098,-5.063 4.4272,-7.8139 4.4272,-7.8138 2.1508,-3 2.1509,-3 4.3503,-7.75 4.3503,-7.75 h 0.8216 0.8217 v -1.4423 -1.4422 l 4.079,-6.5056 4.079,-6.5056 3.6476,-2.1521 3.6477,-2.1522 9.5234,-3.501 9.5233,-3.501 1.5,-0.1752 1.5,-0.1752 4.75,-2.1675 4.75,-2.1676 v -0.5094 -0.5093 l -3.25,-1.4769 -3.25,-1.4769 -6.5785,-2.57 -6.5784,-2.57 h -0.9144 -0.9143 l -12.5072,-4.5973 -12.5072,-4.5972 -1.5,-0.5956 -1.5,-0.5956 -1,-0.084 -1,-0.084 -1,-0.6179 -1,-0.618 -15,-5.1873 -15,-5.1873 -5.835,-2.0389 -5.8351,-2.0388 -6.1649,2.0787 -6.165,2.0787 -9.5,3.4591 -9.5,3.459 -14.5,5.1962 -14.5,5.1962 -9.5,3.2982 -9.5,3.2982 -3.5,1.2111 -3.5,1.2111 -3,1.2904 -3,1.2904 -12,4.1514 -12,4.1514 -10.5,3.8397 -10.5,3.8397 -8,2.7066 -8,2.7067 -3,1.2591 -3,1.2592 -10.2596,3.6892 -10.2597,3.6893 -1.7403,0.3908 -1.7404,0.3907 -8.5,3.1666 -8.5,3.1666 -7,2.3748 -7,2.3747 -1.7364,1.0086 -1.7365,1.0087 h -1.5135 -1.5136 v 1.5247 1.5248 l 2.25,0.8564 2.25,0.8564 4,1.7648 4,1.7649 1.8504,0.363 1.8505,0.3631 5.6495,1.9446 5.6496,1.9446 6.5,2.4182 6.5,2.4183 7.5,2.7222 7.5,2.7223 2,0.8641 2,0.8641 4.5,1.1395 4.5,1.1395 1,0.7801 1,0.7802 7.5,2.5871 7.5,2.5871 11.5,4.1248 11.5,4.1248 4,1.3442 4,1.3442 9.5,3.4347 9.5,3.4347 3,1.1705 3,1.1705 6.5,2.3395 6.5,2.3395 6,2.1788 6,2.1789 6,1.9831 6,1.9831 2,0.8797 2,0.8798 4.5,1.5083 4.5,1.5082 9.5,3.4962 9.5,3.4961 2,0.039 2,0.039 2.6282,-4.2135 z m -252.735,-94.9662 1.8931,-0.9709 8.1069,-2.837 8.1068,-2.8369 9.5,-3.4541 9.5,-3.4541 15.5,-5.6486 15.5,-5.6486 9,-2.9855 9,-2.9856 3.1511,-1.463 3.1512,-1.463 h 1.1124 1.1124 l 1.7365,-0.9139 1.7364,-0.9139 8,-2.7355 8,-2.7356 1,-0.7351 1,-0.7351 3.5,-0.7209 3.5,-0.721 3,-1.2866 3,-1.2866 18,-6.5321 18,-6.5322 8,-2.6877 8,-2.6877 0.95,-0.8881 0.95,-0.888 h 2.6 2.6 l 0.95,-0.8738 0.95,-0.8738 8.5,-3.0441 8.5,-3.0441 11.8547,-4.2731 11.8547,-4.2732 0.4938,-1.2867 0.4938,-1.2868 -3.62,-6.2722 -3.6199,-6.2722 -0.95,-1.5 -0.9501,-1.5 -4.0177,-6.75 -4.0177,-6.75 h 0.6803 0.6804 l -1.5904,-1.25 -1.5903,-1.25 -3.5284,-6.5 -3.5283,-6.5 -5.5812,-9 -5.5812,-9 -0.6683,-1.5 -0.6683,-1.5 -0.6886,-0.5 -0.6886,-0.5 -2.2712,-4.5 -2.2712,-4.5 -2.981,-4.3514 -2.981,-4.3515 -3.0871,0.6175 -3.0872,0.6174 -7.545,2.8394 -7.545,2.8394 -3.5,1.2229 -3.5,1.2228 -9.5,3.3933 -9.5,3.3933 -5.5,2.1163 -5.5,2.1162 -5.5,1.8345 -5.5,1.8345 -14,5.1506 -14,5.1507 -2.5,0.5612 -2.5,0.5613 -1.3509,1.072 -1.3509,1.0719 -1.1491,0.216 -1.1491,0.2159 -4.5,1.4807 -4.5,1.4807 -12.5,4.5314 -12.5,4.5314 -11.5,4.1305 -11.5,4.1305 -4,1.4715 -4,1.4715 -9,3.0728 -9,3.0729 -1.8149,0.9609 -1.8149,0.9608 -1.6851,0.3729 -1.6851,0.3729 -8,2.6869 -8,2.6869 -2.6034,1.3403 -2.6035,1.3402 -9.3965,3.1187 -9.3966,3.1187 -1.4446,1.3917 -1.4446,1.3916 1.7245,3.2697 1.7245,3.2697 3.6361,6 3.636,6 2.5841,4.6121 2.584,4.6121 5.25,8.7319 5.25,8.7319 v 0.7835 0.7836 l 1.4574,1.2096 1.4574,1.2095 4.2926,7.6067 4.2926,7.6066 1.525,2.5563 1.525,2.5562 2.9045,5 2.9045,5 1.8645,2.7162 1.8645,2.7162 3.206,-0.6071 3.206,-0.607 z m 405.2917,-40.9427 2.8151,-1.1954 1,-0.1512 1,-0.1513 2,-0.7089 2,-0.7088 7.5,-2.8496 7.5,-2.8497 9.5,-3.1062 9.5,-3.1062 2,-0.9937 2,-0.9937 8.5,-2.9151 8.5,-2.9152 14.5,-5.1963 14.5,-5.1964 7,-2.4491 7,-2.4492 3,-1.3192 3,-1.3192 4,-1.2463 4,-1.2463 3.5,-1.2775 3.5,-1.2774 5.767,-2.2144 5.7671,-2.2144 0.6111,-0.9888 0.611,-0.9887 -1.3781,-0.8692 -1.3781,-0.8693 -10,-3.4349 -10,-3.4349 -12.5,-4.4839 -12.5,-4.4839 -13,-4.7161 -13,-4.7161 -10,-3.4939 -10,-3.4938 -0.3333,-0.8902 -0.3334,-0.8902 h -1.4787 -1.4788 l -5.1879,-1.5986 -5.1879,-1.5985 -6,-2.3744 -6,-2.3744 -17.5,-6.1087 -17.5,-6.1087 -3.1511,-1.4183 -3.1512,-1.4184 h -0.6977 -0.6977 l -3.1512,-1.411 -3.1511,-1.4111 -8.5,-2.7224 -8.5,-2.7225 -1,-0.7635 -1,-0.7635 -8,-2.5396 -8,-2.5396 -4.5682,-1.7402 -4.5682,-1.7401 -1.7045,0.6541 -1.7045,0.654 -0.6537,1.7727 -0.6537,1.7727 -2.1812,3 -2.1812,3 -1.4662,3 -1.4662,3 -5.7778,10 -5.7779,10 -1.3983,1.5787 -1.3984,1.5788 v 0.7924 0.7924 l -5.0586,8.6288 -5.0586,8.6289 -0.9042,1.5 -0.9042,1.5 -6.6723,11.3133 -6.6723,11.3133 1.3041,2.4367 1.3041,2.4367 h 1.248 1.2481 l 10.3329,3.501 10.333,3.501 7,2.5531 7,2.5531 7,2.5018 7,2.5019 11.5,4.0193 11.5,4.0192 9.5,3.3609 9.5,3.3609 10,3.6677 10,3.6676 2.5,0.8103 2.5,0.8103 0.1849,0.086 0.1849,0.086 2.8151,-1.1954 z"
       style="opacity:0.997;fill:#e19595;fill-opacity:1;stroke:none;stroke-opacity:1;filter:url(#filter1182)" />
  </g>
</svg>
